<svg version="1.1" viewBox="0.0 0.0 255.9737532808399 387.5249343832021" fill="none" stroke="none" stroke-linecap="square" stroke-miterlimit="10" xmlns:xlink="http://www.w3.org/1999/xlink" xmlns="http://www.w3.org/2000/svg"><clipPath id="p.0"><path d="m0 0l255.97375 0l0 387.52493l-255.97375 0l0 -387.52493z" clip-rule="nonzero"/></clipPath><g clip-path="url(#p.0)"><path fill="#000000" fill-opacity="0.0" d="m0 0l255.97375 0l0 387.52493l-255.97375 0z" fill-rule="evenodd"/><path fill="#000000" d="m0 0l256.0 0l0 387.52756l-256.0 0z" fill-rule="evenodd"/><path fill="#bf9000" d="m0 352.0l24.0 0l0 16.0l-24.0 0z" fill-rule="evenodd"/><path fill="#bf9000" d="m0 320.0l24.0 0l0 16.0l-24.0 0z" fill-rule="evenodd"/><path fill="#bf9000" d="m0 288.0l24.0 0l0 16.0l-24.0 0z" fill-rule="evenodd"/><path fill="#bf9000" d="m0 256.0l24.0 0l0 16.0l-24.0 0z" fill-rule="evenodd"/><path fill="#bf9000" d="m0 224.0l24.0 0l0 16.0l-24.0 0z" fill-rule="evenodd"/><path fill="#bf9000" d="m0 192.0l24.0 0l0 16.0l-24.0 0z" fill-rule="evenodd"/><path fill="#bf9000" d="m0 160.0l24.0 0l0 16.0l-24.0 0z" fill-rule="evenodd"/><path fill="#bf9000" d="m0 128.0l24.0 0l0 16.0l-24.0 0z" fill-rule="evenodd"/><path fill="#bf9000" d="m232.0 128.0l24.0 0l0 16.0l-24.0 0z" fill-rule="evenodd"/><path fill="#bf9000" d="m232.0 160.0l24.0 0l0 16.0l-24.0 0z" fill-rule="evenodd"/><path fill="#bf9000" d="m232.0 192.0l24.0 0l0 16.0l-24.0 0z" fill-rule="evenodd"/><path fill="#bf9000" d="m232.0 224.0l24.0 0l0 16.0l-24.0 0z" fill-rule="evenodd"/><path fill="#bf9000" d="m232.0 256.0l24.0 0l0 16.0l-24.0 0z" fill-rule="evenodd"/><path fill="#bf9000" d="m232.0 288.0l24.0 0l0 16.0l-24.0 0z" fill-rule="evenodd"/><path fill="#bf9000" d="m232.0 320.0l24.0 0l0 16.0l-24.0 0z" fill-rule="evenodd"/><path fill="#bf9000" d="m232.0 352.0l24.0 0l0 16.0l-24.0 0z" fill-rule="evenodd"/><path fill="#bf9000" d="m41.48607 371.5418l16.0 0l0 16.0l-16.0 0z" fill-rule="evenodd"/><path fill="#bf9000" d="m73.48607 371.5418l16.0 0l0 16.0l-16.0 0z" fill-rule="evenodd"/><path fill="#bf9000" d="m105.48607 371.5418l16.0 0l0 16.0l-16.0 0z" fill-rule="evenodd"/><path fill="#bf9000" d="m137.48607 371.5418l16.0 0l0 16.0l-16.0 0z" fill-rule="evenodd"/><path fill="#bf9000" d="m169.48607 371.5418l16.0 0l0 16.0l-16.0 0z" fill-rule="evenodd"/><path fill="#bf9000" d="m201.48607 371.5418l16.0 0l0 16.0l-16.0 0z" fill-rule="evenodd"/><path fill="#f3f3f3" d="m209.48607 96.0l40.0 0l0 16.0l-40.0 0z" fill-rule="evenodd"/><path fill="#b7b7b7" d="m32.0 120.0l192.0 0l0 243.90552l-192.0 0z" fill-rule="evenodd"/><path fill="#bf9000" d="m53.94488 5.7716603l8.0 0l0 100.47244l-8.0 0z" fill-rule="evenodd"/><path fill="#bf9000" d="m72.0 5.770898l8.0 0l0 72.0l-8.0 0z" fill-rule="evenodd"/><path fill="#bf9000" d="m90.97214 5.770898l8.0 0l0 72.0l-8.0 0z" fill-rule="evenodd"/><path fill="#bf9000" d="m108.82972 5.770898l8.0 0l0 72.0l-8.0 0z" fill-rule="evenodd"/><path fill="#bf9000" d="m146.03096 5.770898l8.0 0l0 72.0l-8.0 0z" fill-rule="evenodd"/><path fill="#bf9000" d="m127.43034 5.770898l8.0 0l0 72.0l-8.0 0z" fill-rule="evenodd"/><path fill="#bf9000" d="m165.0031 5.770898l8.0 0l0 72.0l-8.0 0z" fill-rule="evenodd"/><path fill="#bf9000" d="m234.72966 5.7716537l0 7.9999995l-63.55905 0l0 -7.9999995z" fill-rule="evenodd"/><path fill="#bf9000" d="m171.40683 69.77165l0 8.0l-24.0 0l0 -8.0z" fill-rule="evenodd"/><path fill="#bf9000" d="m133.94226 69.77165l0 8.0l-24.0 0l0 -8.0z" fill-rule="evenodd"/><path fill="#bf9000" d="m97.38714 69.77165l0 8.0l-24.0 0l0 -8.0z" fill-rule="evenodd"/><path fill="#bf9000" d="m79.625984 5.7716537l0 7.9999995l-24.0 0l0 -7.9999995z" fill-rule="evenodd"/><path fill="#bf9000" d="m115.71391 5.7716537l0 7.9999995l-24.0 0l0 -7.9999995z" fill-rule="evenodd"/><path fill="#bf9000" d="m152.91602 5.7716537l0 7.9999995l-24.0 0l0 -7.9999995z" fill-rule="evenodd"/><path fill="#bf9000" d="m173.15749 98.244095l0 8.0l-117.54331 0l0 -8.0z" fill-rule="evenodd"/><path fill="#000000" fill-opacity="0.0" d="m-7.75 122.267715l53.76378 0l0 29.070862l-53.76378 0z" fill-rule="evenodd"/><path fill="#000000" d="m1.875 138.94772l0 -5.734375l2.546875 0q0.765625 0 1.15625 0.15625q0.40625 0.15625 0.640625 0.546875q0.234375 0.390625 0.234375 0.859375q0 0.609375 -0.390625 1.03125q-0.390625 0.421875 -1.21875 0.53125q0.296875 0.140625 0.453125 0.28125q0.34375 0.3125 0.640625 0.765625l0.984375 1.5625l-0.953125 0l-0.75 -1.1875q-0.328125 -0.515625 -0.546875 -0.78125q-0.21875 -0.28125 -0.390625 -0.390625q-0.171875 -0.109375 -0.34375 -0.15625q-0.125 -0.03125 -0.421875 -0.03125l-0.875 0l0 2.546875l-0.765625 0zm0.765625 -3.203125l1.625 0q0.515625 0 0.8125 -0.109375q0.296875 -0.109375 0.4375 -0.34375q0.15625 -0.234375 0.15625 -0.515625q0 -0.40625 -0.296875 -0.65625q-0.28125 -0.265625 -0.921875 -0.265625l-1.8125 0l0 1.890625zm4.7460938 1.359375l0.71875 -0.0625q0.046875 0.4375 0.234375 0.71875q0.1875 0.265625 0.578125 0.4375q0.390625 0.171875 0.875 0.171875q0.4375 0 0.765625 -0.125q0.328125 -0.140625 0.484375 -0.359375q0.171875 -0.234375 0.171875 -0.5q0 -0.265625 -0.15625 -0.46875q-0.15625 -0.203125 -0.515625 -0.328125q-0.234375 -0.09375 -1.03125 -0.28125q-0.78125 -0.1875 -1.09375 -0.359375q-0.40625 -0.21875 -0.609375 -0.53125q-0.203125 -0.328125 -0.203125 -0.71875q0 -0.4375 0.25 -0.8125q0.25 -0.375 0.71875 -0.5625q0.46875 -0.203125 1.046875 -0.203125q0.640625 0 1.125 0.203125q0.484375 0.203125 0.75 0.609375q0.265625 0.390625 0.28125 0.90625l-0.734375 0.046875q-0.046875 -0.546875 -0.390625 -0.8125q-0.34375 -0.28125 -1.0 -0.28125q-0.6875 0 -1.0 0.25q-0.3125 0.25 -0.3125 0.609375q0 0.3125 0.21875 0.5q0.21875 0.203125 1.140625 0.421875q0.921875 0.203125 1.265625 0.359375q0.5 0.234375 0.734375 0.59375q0.25 0.34375 0.25 0.796875q0 0.46875 -0.265625 0.875q-0.265625 0.390625 -0.75 0.625q-0.484375 0.21875 -1.109375 0.21875q-0.765625 0 -1.296875 -0.21875q-0.53125 -0.234375 -0.828125 -0.6875q-0.296875 -0.453125 -0.3125 -1.03125zm7.0546875 1.84375l0 -5.046875l-1.890625 0l0 -0.6875l4.546875 0l0 0.6875l-1.90625 0l0 5.046875l-0.75 0z" fill-rule="nonzero"/><path fill="#000000" fill-opacity="0.0" d="m-7.75 154.26772l53.76378 0l0 29.070862l-53.76378 0z" fill-rule="evenodd"/><path fill="#000000" d="m1.234375 170.94772l2.203125 -5.734375l0.8125 0l2.34375 5.734375l-0.859375 0l-0.671875 -1.734375l-2.390625 0l-0.625 1.734375l-0.8125 0zm1.65625 -2.359375l1.9375 0l-0.59375 -1.578125q-0.265625 -0.71875 -0.40625 -1.1875q-0.109375 0.546875 -0.3125 1.09375l-0.625 1.671875zm4.3203125 2.359375l0 -5.734375l1.96875 0q0.671875 0 1.015625 0.09375q0.5 0.109375 0.84375 0.40625q0.453125 0.375 0.671875 0.984375q0.234375 0.59375 0.234375 1.359375q0 0.640625 -0.15625 1.15625q-0.15625 0.5 -0.390625 0.828125q-0.234375 0.328125 -0.53125 0.515625q-0.28125 0.1875 -0.6875 0.296875q-0.390625 0.09375 -0.90625 0.09375l-2.0625 0zm0.75 -0.671875l1.21875 0q0.578125 0 0.890625 -0.109375q0.328125 -0.109375 0.515625 -0.296875q0.265625 -0.265625 0.421875 -0.71875q0.15625 -0.46875 0.15625 -1.109375q0 -0.90625 -0.296875 -1.375q-0.296875 -0.484375 -0.71875 -0.65625q-0.3125 -0.109375 -0.984375 -0.109375l-1.203125 0l0 4.375zm9.105469 -1.34375l0.765625 0.203125q-0.25 0.921875 -0.875 1.421875q-0.609375 0.484375 -1.5 0.484375q-0.921875 0 -1.515625 -0.375q-0.578125 -0.375 -0.875 -1.09375q-0.296875 -0.71875 -0.296875 -1.53125q0 -0.890625 0.328125 -1.5625q0.34375 -0.671875 0.96875 -1.015625q0.640625 -0.34375 1.40625 -0.34375q0.859375 0 1.4375 0.4375q0.59375 0.4375 0.8125 1.234375l-0.734375 0.171875q-0.203125 -0.625 -0.59375 -0.90625q-0.375 -0.28125 -0.9375 -0.28125q-0.671875 0 -1.109375 0.3125q-0.4375 0.3125 -0.625 0.84375q-0.171875 0.53125 -0.171875 1.109375q0 0.71875 0.203125 1.265625q0.21875 0.546875 0.65625 0.828125q0.453125 0.265625 0.984375 0.265625q0.640625 0 1.078125 -0.359375q0.4375 -0.375 0.59375 -1.109375z" fill-rule="nonzero"/><path fill="#000000" fill-opacity="0.0" d="m-7.75 186.26772l53.76378 0l0 29.070862l-53.76378 0z" fill-rule="evenodd"/><path fill="#000000" d="m1.890625 202.94772l0 -5.734375l4.140625 0l0 0.6875l-3.390625 0l0 1.75l3.171875 0l0 0.671875l-3.171875 0l0 1.953125l3.515625 0l0 0.671875l-4.265625 0zm5.3046875 0l0 -5.734375l0.78125 0l3.0 4.5l0 -4.5l0.734375 0l0 5.734375l-0.78125 0l-3.0 -4.5l0 4.5l-0.734375 0z" fill-rule="nonzero"/><path fill="#000000" fill-opacity="0.0" d="m-7.75 218.26772l53.76378 0l0 29.070862l-53.76378 0z" fill-rule="evenodd"/><path fill="#000000" d="m4.546875 232.69772l0 -0.671875l2.421875 0l0 2.125q-0.546875 0.4375 -1.140625 0.671875q-0.59375 0.21875 -1.21875 0.21875q-0.84375 0 -1.546875 -0.359375q-0.6875 -0.359375 -1.046875 -1.046875q-0.34375 -0.6875 -0.34375 -1.53125q0 -0.828125 0.34375 -1.546875q0.359375 -0.734375 1.015625 -1.078125q0.65625 -0.359375 1.515625 -0.359375q0.625 0 1.125 0.203125q0.5 0.203125 0.78125 0.5625q0.28125 0.359375 0.4375 0.9375l-0.6875 0.1875q-0.125 -0.4375 -0.328125 -0.6875q-0.1875 -0.25 -0.546875 -0.390625q-0.34375 -0.15625 -0.78125 -0.15625q-0.515625 0 -0.90625 0.15625q-0.375 0.15625 -0.609375 0.421875q-0.21875 0.25 -0.359375 0.5625q-0.21875 0.53125 -0.21875 1.140625q0 0.765625 0.265625 1.28125q0.265625 0.515625 0.765625 0.765625q0.515625 0.25 1.078125 0.25q0.484375 0 0.953125 -0.1875q0.46875 -0.1875 0.71875 -0.40625l0 -1.0625l-1.6875 0zm3.5507812 2.25l0 -5.734375l2.15625 0q0.5625 0 0.875 0.0625q0.421875 0.0625 0.703125 0.265625q0.28125 0.203125 0.453125 0.5625q0.171875 0.34375 0.171875 0.765625q0 0.734375 -0.46875 1.25q-0.453125 0.5 -1.671875 0.5l-1.46875 0l0 2.328125l-0.75 0zm0.75 -3.0l1.484375 0q0.734375 0 1.03125 -0.265625q0.3125 -0.28125 0.3125 -0.78125q0 -0.359375 -0.1875 -0.609375q-0.171875 -0.265625 -0.46875 -0.34375q-0.1875 -0.046875 -0.703125 -0.046875l-1.46875 0l0 2.046875zm6.9453125 3.0l-0.703125 0l0 -4.484375q-0.25 0.25 -0.671875 0.5q-0.40625 0.234375 -0.734375 0.34375l0 -0.671875q0.59375 -0.28125 1.03125 -0.671875q0.4375 -0.390625 0.625 -0.765625l0.453125 0l0 5.75zm5.4492188 -4.328125l-0.703125 0.0625q-0.09375 -0.421875 -0.265625 -0.609375q-0.28125 -0.296875 -0.703125 -0.296875q-0.328125 0 -0.59375 0.1875q-0.328125 0.234375 -0.515625 0.703125q-0.1875 0.46875 -0.203125 1.328125q0.25 -0.390625 0.609375 -0.578125q0.375 -0.1875 0.78125 -0.1875q0.703125 0 1.1875 0.515625q0.5 0.515625 0.5 1.34375q0 0.53125 -0.234375 1.0q-0.21875 0.46875 -0.625 0.71875q-0.40625 0.234375 -0.921875 0.234375q-0.890625 0 -1.453125 -0.640625q-0.546875 -0.65625 -0.546875 -2.140625q0 -1.65625 0.625 -2.40625q0.53125 -0.65625 1.4375 -0.65625q0.671875 0 1.09375 0.375q0.4375 0.375 0.53125 1.046875zm-2.875 2.46875q0 0.359375 0.15625 0.703125q0.15625 0.328125 0.421875 0.5q0.28125 0.171875 0.59375 0.171875q0.4375 0 0.75 -0.359375q0.328125 -0.359375 0.328125 -0.96875q0 -0.59375 -0.3125 -0.9375q-0.3125 -0.34375 -0.796875 -0.34375q-0.46875 0 -0.8125 0.34375q-0.328125 0.34375 -0.328125 0.890625z" fill-rule="nonzero"/><path fill="#000000" fill-opacity="0.0" d="m-7.75 250.26772l53.76378 0l0 29.070877l-53.76378 0z" fill-rule="evenodd"/><path fill="#000000" d="m4.546875 264.69772l0 -0.671875l2.421875 0l0 2.125q-0.546875 0.4375 -1.140625 0.671875q-0.59375 0.21875 -1.21875 0.21875q-0.84375 0 -1.546875 -0.359375q-0.6875 -0.359375 -1.046875 -1.046875q-0.34375 -0.6875 -0.34375 -1.53125q0 -0.828125 0.34375 -1.546875q0.359375 -0.734375 1.015625 -1.078125q0.65625 -0.359375 1.515625 -0.359375q0.625 0 1.125 0.203125q0.5 0.203125 0.78125 0.5625q0.28125 0.359375 0.4375 0.9375l-0.6875 0.1875q-0.125 -0.4375 -0.328125 -0.6875q-0.1875 -0.25 -0.546875 -0.390625q-0.34375 -0.15625 -0.78125 -0.15625q-0.515625 0 -0.90625 0.15625q-0.375 0.15625 -0.609375 0.421875q-0.21875 0.25 -0.359375 0.5625q-0.21875 0.53125 -0.21875 1.140625q0 0.765625 0.265625 1.28125q0.265625 0.515625 0.765625 0.765625q0.515625 0.25 1.078125 0.25q0.484375 0 0.953125 -0.1875q0.46875 -0.1875 0.71875 -0.40625l0 -1.0625l-1.6875 0zm3.5507812 2.25l0 -5.734375l2.15625 0q0.5625 0 0.875 0.0625q0.421875 0.0625 0.703125 0.265625q0.28125 0.203125 0.453125 0.5625q0.171875 0.34375 0.171875 0.765625q0 0.734375 -0.46875 1.25q-0.453125 0.5 -1.671875 0.5l-1.46875 0l0 2.328125l-0.75 0zm0.75 -3.0l1.484375 0q0.734375 0 1.03125 -0.265625q0.3125 -0.28125 0.3125 -0.78125q0 -0.359375 -0.1875 -0.609375q-0.171875 -0.265625 -0.46875 -0.34375q-0.1875 -0.046875 -0.703125 -0.046875l-1.46875 0l0 2.046875zm6.9453125 3.0l-0.703125 0l0 -4.484375q-0.25 0.25 -0.671875 0.5q-0.40625 0.234375 -0.734375 0.34375l0 -0.671875q0.59375 -0.28125 1.03125 -0.671875q0.4375 -0.390625 0.625 -0.765625l0.453125 0l0 5.75zm4.0585938 0l0 -1.375l-2.484375 0l0 -0.640625l2.609375 -3.71875l0.578125 0l0 3.71875l0.765625 0l0 0.640625l-0.765625 0l0 1.375l-0.703125 0zm0 -2.015625l0 -2.578125l-1.796875 2.578125l1.796875 0z" fill-rule="nonzero"/><path fill="#000000" fill-opacity="0.0" d="m-7.75 281.46457l53.76378 0l0 29.070862l-53.76378 0z" fill-rule="evenodd"/><path fill="#000000" d="m4.546875 295.89456l0 -0.671875l2.421875 0l0 2.125q-0.546875 0.4375 -1.140625 0.671875q-0.59375 0.21875 -1.21875 0.21875q-0.84375 0 -1.546875 -0.359375q-0.6875 -0.359375 -1.046875 -1.046875q-0.34375 -0.6875 -0.34375 -1.53125q0 -0.828125 0.34375 -1.546875q0.359375 -0.734375 1.015625 -1.078125q0.65625 -0.359375 1.515625 -0.359375q0.625 0 1.125 0.203125q0.5 0.203125 0.78125 0.5625q0.28125 0.359375 0.4375 0.9375l-0.6875 0.1875q-0.125 -0.4375 -0.328125 -0.6875q-0.1875 -0.25 -0.546875 -0.390625q-0.34375 -0.15625 -0.78125 -0.15625q-0.515625 0 -0.90625 0.15625q-0.375 0.15625 -0.609375 0.421875q-0.21875 0.25 -0.359375 0.5625q-0.21875 0.53125 -0.21875 1.140625q0 0.765625 0.265625 1.28125q0.265625 0.515625 0.765625 0.765625q0.515625 0.25 1.078125 0.25q0.484375 0 0.953125 -0.1875q0.46875 -0.1875 0.71875 -0.40625l0 -1.0625l-1.6875 0zm3.5507812 2.25l0 -5.734375l2.15625 0q0.5625 0 0.875 0.0625q0.421875 0.0625 0.703125 0.265625q0.28125 0.203125 0.453125 0.5625q0.171875 0.34375 0.171875 0.765625q0 0.734375 -0.46875 1.25q-0.453125 0.5 -1.671875 0.5l-1.46875 0l0 2.328125l-0.75 0zm0.75 -3.0l1.484375 0q0.734375 0 1.03125 -0.265625q0.3125 -0.28125 0.3125 -0.78125q0 -0.359375 -0.1875 -0.609375q-0.171875 -0.265625 -0.46875 -0.34375q-0.1875 -0.046875 -0.703125 -0.046875l-1.46875 0l0 2.046875zm6.9453125 3.0l-0.703125 0l0 -4.484375q-0.25 0.25 -0.671875 0.5q-0.40625 0.234375 -0.734375 0.34375l0 -0.671875q0.59375 -0.28125 1.03125 -0.671875q0.4375 -0.390625 0.625 -0.765625l0.453125 0l0 5.75zm5.4960938 -0.671875l0 0.671875l-3.78125 0q-0.015625 -0.25 0.078125 -0.484375q0.140625 -0.390625 0.453125 -0.765625q0.328125 -0.375 0.921875 -0.875q0.9375 -0.765625 1.265625 -1.203125q0.328125 -0.453125 0.328125 -0.84375q0 -0.421875 -0.296875 -0.703125q-0.296875 -0.296875 -0.78125 -0.296875q-0.5 0 -0.8125 0.3125q-0.296875 0.296875 -0.3125 0.84375l-0.71875 -0.078125q0.078125 -0.8125 0.5625 -1.234375q0.484375 -0.421875 1.296875 -0.421875q0.828125 0 1.296875 0.453125q0.484375 0.453125 0.484375 1.140625q0 0.34375 -0.140625 0.671875q-0.140625 0.328125 -0.46875 0.703125q-0.3125 0.359375 -1.078125 1.0q-0.625 0.53125 -0.8125 0.71875q-0.171875 0.1875 -0.296875 0.390625l2.8125 0z" fill-rule="nonzero"/><path fill="#000000" fill-opacity="0.0" d="m-7.75 313.46457l53.76378 0l0 29.070862l-53.76378 0z" fill-rule="evenodd"/><path fill="#000000" d="m4.546875 327.89456l0 -0.671875l2.421875 0l0 2.125q-0.546875 0.4375 -1.140625 0.671875q-0.59375 0.21875 -1.21875 0.21875q-0.84375 0 -1.546875 -0.359375q-0.6875 -0.359375 -1.046875 -1.046875q-0.34375 -0.6875 -0.34375 -1.53125q0 -0.828125 0.34375 -1.546875q0.359375 -0.734375 1.015625 -1.078125q0.65625 -0.359375 1.515625 -0.359375q0.625 0 1.125 0.203125q0.5 0.203125 0.78125 0.5625q0.28125 0.359375 0.4375 0.9375l-0.6875 0.1875q-0.125 -0.4375 -0.328125 -0.6875q-0.1875 -0.25 -0.546875 -0.390625q-0.34375 -0.15625 -0.78125 -0.15625q-0.515625 0 -0.90625 0.15625q-0.375 0.15625 -0.609375 0.421875q-0.21875 0.25 -0.359375 0.5625q-0.21875 0.53125 -0.21875 1.140625q0 0.765625 0.265625 1.28125q0.265625 0.515625 0.765625 0.765625q0.515625 0.25 1.078125 0.25q0.484375 0 0.953125 -0.1875q0.46875 -0.1875 0.71875 -0.40625l0 -1.0625l-1.6875 0zm3.5507812 2.25l0 -5.734375l2.15625 0q0.5625 0 0.875 0.0625q0.421875 0.0625 0.703125 0.265625q0.28125 0.203125 0.453125 0.5625q0.171875 0.34375 0.171875 0.765625q0 0.734375 -0.46875 1.25q-0.453125 0.5 -1.671875 0.5l-1.46875 0l0 2.328125l-0.75 0zm0.75 -3.0l1.484375 0q0.734375 0 1.03125 -0.265625q0.3125 -0.28125 0.3125 -0.78125q0 -0.359375 -0.1875 -0.609375q-0.171875 -0.265625 -0.46875 -0.34375q-0.1875 -0.046875 -0.703125 -0.046875l-1.46875 0l0 2.046875zm6.9453125 3.0l-0.703125 0l0 -4.484375q-0.25 0.25 -0.671875 0.5q-0.40625 0.234375 -0.734375 0.34375l0 -0.671875q0.59375 -0.28125 1.03125 -0.671875q0.4375 -0.390625 0.625 -0.765625l0.453125 0l0 5.75zm1.8085938 -1.515625l0.703125 -0.09375q0.109375 0.59375 0.40625 0.859375q0.296875 0.265625 0.703125 0.265625q0.5 0 0.84375 -0.34375q0.34375 -0.34375 0.34375 -0.84375q0 -0.484375 -0.328125 -0.796875q-0.3125 -0.328125 -0.796875 -0.328125q-0.203125 0 -0.5 0.078125l0.078125 -0.609375q0.078125 0 0.125 0q0.4375 0 0.796875 -0.234375q0.359375 -0.234375 0.359375 -0.71875q0 -0.390625 -0.265625 -0.640625q-0.25 -0.25 -0.671875 -0.25q-0.40625 0 -0.6875 0.265625q-0.265625 0.25 -0.34375 0.765625l-0.703125 -0.125q0.125 -0.703125 0.578125 -1.09375q0.46875 -0.390625 1.140625 -0.390625q0.46875 0 0.859375 0.203125q0.40625 0.203125 0.609375 0.546875q0.21875 0.34375 0.21875 0.734375q0 0.375 -0.203125 0.6875q-0.203125 0.296875 -0.59375 0.46875q0.515625 0.125 0.796875 0.5q0.28125 0.359375 0.28125 0.921875q0 0.75 -0.546875 1.28125q-0.546875 0.515625 -1.390625 0.515625q-0.75 0 -1.25 -0.453125q-0.5 -0.453125 -0.5625 -1.171875z" fill-rule="nonzero"/><path fill="#000000" fill-opacity="0.0" d="m-7.75 345.46457l53.76378 0l0 29.070862l-53.76378 0z" fill-rule="evenodd"/><path fill="#000000" d="m3.5 362.14456l-2.21875 -5.734375l0.828125 0l1.484375 4.171875q0.1875 0.5 0.296875 0.9375q0.140625 -0.46875 0.3125 -0.9375l1.546875 -4.171875l0.78125 0l-2.25 5.734375l-0.78125 0zm7.7890625 -2.015625l0.765625 0.203125q-0.25 0.921875 -0.875 1.421875q-0.609375 0.484375 -1.5 0.484375q-0.921875 0 -1.515625 -0.375q-0.578125 -0.375 -0.875 -1.09375q-0.296875 -0.71875 -0.296875 -1.53125q0 -0.890625 0.328125 -1.5625q0.34375 -0.671875 0.96875 -1.015625q0.640625 -0.34375 1.40625 -0.34375q0.859375 0 1.4375 0.4375q0.59375 0.4375 0.8125 1.234375l-0.734375 0.171875q-0.203125 -0.625 -0.59375 -0.90625q-0.375 -0.28125 -0.9375 -0.28125q-0.671875 0 -1.109375 0.3125q-0.4375 0.3125 -0.625 0.84375q-0.171875 0.53125 -0.171875 1.109375q0 0.71875 0.203125 1.265625q0.21875 0.546875 0.65625 0.828125q0.453125 0.265625 0.984375 0.265625q0.640625 0 1.078125 -0.359375q0.4375 -0.375 0.59375 -1.109375zm5.7773438 0l0.765625 0.203125q-0.25 0.921875 -0.875 1.421875q-0.609375 0.484375 -1.5 0.484375q-0.921875 0 -1.515625 -0.375q-0.578125 -0.375 -0.875 -1.09375q-0.296875 -0.71875 -0.296875 -1.53125q0 -0.890625 0.328125 -1.5625q0.34375 -0.671875 0.96875 -1.015625q0.640625 -0.34375 1.40625 -0.34375q0.859375 0 1.4375 0.4375q0.59375 0.4375 0.8125 1.234375l-0.734375 0.171875q-0.203125 -0.625 -0.59375 -0.90625q-0.375 -0.28125 -0.9375 -0.28125q-0.671875 0 -1.109375 0.3125q-0.4375 0.3125 -0.625 0.84375q-0.171875 0.53125 -0.171875 1.109375q0 0.71875 0.203125 1.265625q0.21875 0.546875 0.65625 0.828125q0.453125 0.265625 0.984375 0.265625q0.640625 0 1.078125 -0.359375q0.4375 -0.375 0.59375 -1.109375z" fill-rule="nonzero"/><path fill="#000000" fill-opacity="0.0" d="m209.5 153.46457l53.763794 0l0 29.070862l-53.763794 0z" fill-rule="evenodd"/><path fill="#000000" d="m237.99815 170.14456l0 -5.734375l2.546875 0q0.765625 0 1.15625 0.15625q0.40625 0.15625 0.640625 0.546875q0.234375 0.390625 0.234375 0.859375q0 0.609375 -0.390625 1.03125q-0.390625 0.421875 -1.21875 0.53125q0.296875 0.140625 0.453125 0.28125q0.34375 0.3125 0.640625 0.765625l0.984375 1.5625l-0.953125 0l-0.75 -1.1875q-0.328125 -0.515625 -0.546875 -0.78125q-0.21875 -0.28125 -0.390625 -0.390625q-0.171875 -0.109375 -0.34375 -0.15625q-0.125 -0.03125 -0.421875 -0.03125l-0.875 0l0 2.546875l-0.765625 0zm0.765625 -3.203125l1.625 0q0.515625 0 0.8125 -0.109375q0.296875 -0.109375 0.4375 -0.34375q0.15625 -0.234375 0.15625 -0.515625q0 -0.40625 -0.296875 -0.65625q-0.28125 -0.265625 -0.921875 -0.265625l-1.8125 0l0 1.890625zm4.4179688 3.203125l2.21875 -2.984375l-1.953125 -2.75l0.90625 0l1.03125 1.46875q0.328125 0.46875 0.46875 0.703125q0.1875 -0.3125 0.453125 -0.640625l1.15625 -1.53125l0.8125 0l-2.0 2.703125l2.15625 3.03125l-0.9375 0l-1.4375 -2.046875q-0.125 -0.171875 -0.25 -0.375q-0.1875 0.3125 -0.265625 0.421875l-1.4375 2.0l-0.921875 0zm5.9296875 0l0 -5.734375l1.96875 0q0.671875 0 1.015625 0.09375q0.5 0.109375 0.84375 0.40625q0.453125 0.375 0.671875 0.984375q0.234375 0.59375 0.234375 1.359375q0 0.640625 -0.15625 1.15625q-0.15625 0.5 -0.390625 0.828125q-0.234375 0.328125 -0.53125 0.515625q-0.28125 0.1875 -0.6875 0.296875q-0.390625 0.09375 -0.90625 0.09375l-2.0625 0zm0.75 -0.671875l1.21875 0q0.578125 0 0.890625 -0.109375q0.328125 -0.109375 0.515625 -0.296875q0.265625 -0.265625 0.421875 -0.71875q0.15625 -0.46875 0.15625 -1.109375q0 -0.90625 -0.296875 -1.375q-0.296875 -0.484375 -0.71875 -0.65625q-0.3125 -0.109375 -0.984375 -0.109375l-1.203125 0l0 4.375z" fill-rule="nonzero"/><path fill="#000000" fill-opacity="0.0" d="m209.5 121.46457l53.763794 0l0 29.070862l-53.763794 0z" fill-rule="evenodd"/><path fill="#000000" d="m240.3419 138.14456l0 -5.046875l-1.890625 0l0 -0.6875l4.546875 0l0 0.6875l-1.90625 0l0 5.046875l-0.75 0zm2.8398438 0l2.21875 -2.984375l-1.953125 -2.75l0.90625 0l1.03125 1.46875q0.328125 0.46875 0.46875 0.703125q0.1875 -0.3125 0.453125 -0.640625l1.15625 -1.53125l0.8125 0l-2.0 2.703125l2.15625 3.03125l-0.9375 0l-1.4375 -2.046875q-0.125 -0.171875 -0.25 -0.375q-0.1875 0.3125 -0.265625 0.421875l-1.4375 2.0l-0.921875 0zm5.9296875 0l0 -5.734375l1.96875 0q0.671875 0 1.015625 0.09375q0.5 0.109375 0.84375 0.40625q0.453125 0.375 0.671875 0.984375q0.234375 0.59375 0.234375 1.359375q0 0.640625 -0.15625 1.15625q-0.15625 0.5 -0.390625 0.828125q-0.234375 0.328125 -0.53125 0.515625q-0.28125 0.1875 -0.6875 0.296875q-0.390625 0.09375 -0.90625 0.09375l-2.0625 0zm0.75 -0.671875l1.21875 0q0.578125 0 0.890625 -0.109375q0.328125 -0.109375 0.515625 -0.296875q0.265625 -0.265625 0.421875 -0.71875q0.15625 -0.46875 0.15625 -1.109375q0 -0.90625 -0.296875 -1.375q-0.296875 -0.484375 -0.71875 -0.65625q-0.3125 -0.109375 -0.984375 -0.109375l-1.203125 0l0 4.375z" fill-rule="nonzero"/><path fill="#000000" fill-opacity="0.0" d="m209.5 185.46457l53.763794 0l0 29.070862l-53.763794 0z" fill-rule="evenodd"/><path fill="#000000" d="m241.55284 199.89456l0 -0.671875l2.421875 0l0 2.125q-0.546875 0.4375 -1.140625 0.671875q-0.59375 0.21875 -1.21875 0.21875q-0.84375 0 -1.546875 -0.359375q-0.6875 -0.359375 -1.046875 -1.046875q-0.34375 -0.6875 -0.34375 -1.53125q0 -0.828125 0.34375 -1.546875q0.359375 -0.734375 1.015625 -1.078125q0.65625 -0.359375 1.515625 -0.359375q0.625 0 1.125 0.203125q0.5 0.203125 0.78125 0.5625q0.28125 0.359375 0.4375 0.9375l-0.6875 0.1875q-0.125 -0.4375 -0.328125 -0.6875q-0.1875 -0.25 -0.546875 -0.390625q-0.34375 -0.15625 -0.78125 -0.15625q-0.515625 0 -0.90625 0.15625q-0.375 0.15625 -0.609375 0.421875q-0.21875 0.25 -0.359375 0.5625q-0.21875 0.53125 -0.21875 1.140625q0 0.765625 0.265625 1.28125q0.265625 0.515625 0.765625 0.765625q0.515625 0.25 1.078125 0.25q0.484375 0 0.953125 -0.1875q0.46875 -0.1875 0.71875 -0.40625l0 -1.0625l-1.6875 0zm3.5507812 2.25l0 -5.734375l2.15625 0q0.5625 0 0.875 0.0625q0.421875 0.0625 0.703125 0.265625q0.28125 0.203125 0.453125 0.5625q0.171875 0.34375 0.171875 0.765625q0 0.734375 -0.46875 1.25q-0.453125 0.5 -1.671875 0.5l-1.46875 0l0 2.328125l-0.75 0zm0.75 -3.0l1.484375 0q0.734375 0 1.03125 -0.265625q0.3125 -0.28125 0.3125 -0.78125q0 -0.359375 -0.1875 -0.609375q-0.171875 -0.265625 -0.46875 -0.34375q-0.1875 -0.046875 -0.703125 -0.046875l-1.46875 0l0 2.046875zm4.2890625 1.5l0.75 -0.0625q0.078125 0.53125 0.375 0.8125q0.296875 0.265625 0.71875 0.265625q0.515625 0 0.859375 -0.375q0.359375 -0.390625 0.359375 -1.015625q0 -0.609375 -0.34375 -0.953125q-0.34375 -0.34375 -0.890625 -0.34375q-0.328125 0 -0.609375 0.15625q-0.265625 0.140625 -0.421875 0.390625l-0.671875 -0.078125l0.5625 -2.953125l2.84375 0l0 0.671875l-2.28125 0l-0.3125 1.546875q0.515625 -0.359375 1.078125 -0.359375q0.75 0 1.265625 0.515625q0.515625 0.515625 0.515625 1.34375q0 0.765625 -0.453125 1.34375q-0.546875 0.6875 -1.5 0.6875q-0.78125 0 -1.28125 -0.4375q-0.484375 -0.4375 -0.5625 -1.15625z" fill-rule="nonzero"/><path fill="#000000" fill-opacity="0.0" d="m209.5 217.46457l53.763794 0l0 29.070862l-53.763794 0z" fill-rule="evenodd"/><path fill="#000000" d="m241.55284 231.89456l0 -0.671875l2.421875 0l0 2.125q-0.546875 0.4375 -1.140625 0.671875q-0.59375 0.21875 -1.21875 0.21875q-0.84375 0 -1.546875 -0.359375q-0.6875 -0.359375 -1.046875 -1.046875q-0.34375 -0.6875 -0.34375 -1.53125q0 -0.828125 0.34375 -1.546875q0.359375 -0.734375 1.015625 -1.078125q0.65625 -0.359375 1.515625 -0.359375q0.625 0 1.125 0.203125q0.5 0.203125 0.78125 0.5625q0.28125 0.359375 0.4375 0.9375l-0.6875 0.1875q-0.125 -0.4375 -0.328125 -0.6875q-0.1875 -0.25 -0.546875 -0.390625q-0.34375 -0.15625 -0.78125 -0.15625q-0.515625 0 -0.90625 0.15625q-0.375 0.15625 -0.609375 0.421875q-0.21875 0.25 -0.359375 0.5625q-0.21875 0.53125 -0.21875 1.140625q0 0.765625 0.265625 1.28125q0.265625 0.515625 0.765625 0.765625q0.515625 0.25 1.078125 0.25q0.484375 0 0.953125 -0.1875q0.46875 -0.1875 0.71875 -0.40625l0 -1.0625l-1.6875 0zm3.5507812 2.25l0 -5.734375l2.15625 0q0.5625 0 0.875 0.0625q0.421875 0.0625 0.703125 0.265625q0.28125 0.203125 0.453125 0.5625q0.171875 0.34375 0.171875 0.765625q0 0.734375 -0.46875 1.25q-0.453125 0.5 -1.671875 0.5l-1.46875 0l0 2.328125l-0.75 0zm0.75 -3.0l1.484375 0q0.734375 0 1.03125 -0.265625q0.3125 -0.28125 0.3125 -0.78125q0 -0.359375 -0.1875 -0.609375q-0.171875 -0.265625 -0.46875 -0.34375q-0.1875 -0.046875 -0.703125 -0.046875l-1.46875 0l0 2.046875zm6.5546875 3.0l0 -1.375l-2.484375 0l0 -0.640625l2.609375 -3.71875l0.578125 0l0 3.71875l0.765625 0l0 0.640625l-0.765625 0l0 1.375l-0.703125 0zm0 -2.015625l0 -2.578125l-1.796875 2.578125l1.796875 0z" fill-rule="nonzero"/><path fill="#000000" fill-opacity="0.0" d="m209.5 249.46457l53.763794 0l0 29.070862l-53.763794 0z" fill-rule="evenodd"/><path fill="#000000" d="m241.55284 263.89456l0 -0.671875l2.421875 0l0 2.125q-0.546875 0.4375 -1.140625 0.671875q-0.59375 0.21875 -1.21875 0.21875q-0.84375 0 -1.546875 -0.359375q-0.6875 -0.359375 -1.046875 -1.046875q-0.34375 -0.6875 -0.34375 -1.53125q0 -0.828125 0.34375 -1.546875q0.359375 -0.734375 1.015625 -1.078125q0.65625 -0.359375 1.515625 -0.359375q0.625 0 1.125 0.203125q0.5 0.203125 0.78125 0.5625q0.28125 0.359375 0.4375 0.9375l-0.6875 0.1875q-0.125 -0.4375 -0.328125 -0.6875q-0.1875 -0.25 -0.546875 -0.390625q-0.34375 -0.15625 -0.78125 -0.15625q-0.515625 0 -0.90625 0.15625q-0.375 0.15625 -0.609375 0.421875q-0.21875 0.25 -0.359375 0.5625q-0.21875 0.53125 -0.21875 1.140625q0 0.765625 0.265625 1.28125q0.265625 0.515625 0.765625 0.765625q0.515625 0.25 1.078125 0.25q0.484375 0 0.953125 -0.1875q0.46875 -0.1875 0.71875 -0.40625l0 -1.0625l-1.6875 0zm3.5507812 2.25l0 -5.734375l2.15625 0q0.5625 0 0.875 0.0625q0.421875 0.0625 0.703125 0.265625q0.28125 0.203125 0.453125 0.5625q0.171875 0.34375 0.171875 0.765625q0 0.734375 -0.46875 1.25q-0.453125 0.5 -1.671875 0.5l-1.46875 0l0 2.328125l-0.75 0zm0.75 -3.0l1.484375 0q0.734375 0 1.03125 -0.265625q0.3125 -0.28125 0.3125 -0.78125q0 -0.359375 -0.1875 -0.609375q-0.171875 -0.265625 -0.46875 -0.34375q-0.1875 -0.046875 -0.703125 -0.046875l-1.46875 0l0 2.046875zm4.2890625 0.171875q0 -1.015625 0.203125 -1.625q0.21875 -0.625 0.625 -0.953125q0.421875 -0.34375 1.046875 -0.34375q0.453125 0 0.796875 0.1875q0.359375 0.1875 0.578125 0.53125q0.234375 0.34375 0.359375 0.859375q0.125 0.5 0.125 1.34375q0 1.015625 -0.203125 1.640625q-0.203125 0.609375 -0.625 0.953125q-0.40625 0.328125 -1.03125 0.328125q-0.828125 0 -1.296875 -0.59375q-0.578125 -0.71875 -0.578125 -2.328125zm0.734375 0q0 1.40625 0.328125 1.875q0.328125 0.46875 0.8125 0.46875q0.484375 0 0.8125 -0.46875q0.328125 -0.46875 0.328125 -1.875q0 -1.40625 -0.328125 -1.875q-0.328125 -0.46875 -0.828125 -0.46875q-0.484375 0 -0.765625 0.40625q-0.359375 0.53125 -0.359375 1.9375z" fill-rule="nonzero"/><path fill="#000000" fill-opacity="0.0" d="m209.5 281.46457l53.763794 0l0 29.070862l-53.763794 0z" fill-rule="evenodd"/><path fill="#000000" d="m241.55284 295.89456l0 -0.671875l2.421875 0l0 2.125q-0.546875 0.4375 -1.140625 0.671875q-0.59375 0.21875 -1.21875 0.21875q-0.84375 0 -1.546875 -0.359375q-0.6875 -0.359375 -1.046875 -1.046875q-0.34375 -0.6875 -0.34375 -1.53125q0 -0.828125 0.34375 -1.546875q0.359375 -0.734375 1.015625 -1.078125q0.65625 -0.359375 1.515625 -0.359375q0.625 0 1.125 0.203125q0.5 0.203125 0.78125 0.5625q0.28125 0.359375 0.4375 0.9375l-0.6875 0.1875q-0.125 -0.4375 -0.328125 -0.6875q-0.1875 -0.25 -0.546875 -0.390625q-0.34375 -0.15625 -0.78125 -0.15625q-0.515625 0 -0.90625 0.15625q-0.375 0.15625 -0.609375 0.421875q-0.21875 0.25 -0.359375 0.5625q-0.21875 0.53125 -0.21875 1.140625q0 0.765625 0.265625 1.28125q0.265625 0.515625 0.765625 0.765625q0.515625 0.25 1.078125 0.25q0.484375 0 0.953125 -0.1875q0.46875 -0.1875 0.71875 -0.40625l0 -1.0625l-1.6875 0zm3.5507812 2.25l0 -5.734375l2.15625 0q0.5625 0 0.875 0.0625q0.421875 0.0625 0.703125 0.265625q0.28125 0.203125 0.453125 0.5625q0.171875 0.34375 0.171875 0.765625q0 0.734375 -0.46875 1.25q-0.453125 0.5 -1.671875 0.5l-1.46875 0l0 2.328125l-0.75 0zm0.75 -3.0l1.484375 0q0.734375 0 1.03125 -0.265625q0.3125 -0.28125 0.3125 -0.78125q0 -0.359375 -0.1875 -0.609375q-0.171875 -0.265625 -0.46875 -0.34375q-0.1875 -0.046875 -0.703125 -0.046875l-1.46875 0l0 2.046875zm7.9921875 2.328125l0 0.671875l-3.78125 0q-0.015625 -0.25 0.078125 -0.484375q0.140625 -0.390625 0.453125 -0.765625q0.328125 -0.375 0.921875 -0.875q0.9375 -0.765625 1.265625 -1.203125q0.328125 -0.453125 0.328125 -0.84375q0 -0.421875 -0.296875 -0.703125q-0.296875 -0.296875 -0.78125 -0.296875q-0.5 0 -0.8125 0.3125q-0.296875 0.296875 -0.3125 0.84375l-0.71875 -0.078125q0.078125 -0.8125 0.5625 -1.234375q0.484375 -0.421875 1.296875 -0.421875q0.828125 0 1.296875 0.453125q0.484375 0.453125 0.484375 1.140625q0 0.34375 -0.140625 0.671875q-0.140625 0.328125 -0.46875 0.703125q-0.3125 0.359375 -1.078125 1.0q-0.625 0.53125 -0.8125 0.71875q-0.171875 0.1875 -0.296875 0.390625l2.8125 0z" fill-rule="nonzero"/><path fill="#000000" fill-opacity="0.0" d="m209.5 313.46457l53.763794 0l0 29.070862l-53.763794 0z" fill-rule="evenodd"/><path fill="#000000" d="m237.10362 327.89456l0 -0.671875l2.421875 0l0 2.125q-0.546875 0.4375 -1.140625 0.671875q-0.59375 0.21875 -1.21875 0.21875q-0.84375 0 -1.546875 -0.359375q-0.6875 -0.359375 -1.046875 -1.046875q-0.34375 -0.6875 -0.34375 -1.53125q0 -0.828125 0.34375 -1.546875q0.359375 -0.734375 1.015625 -1.078125q0.65625 -0.359375 1.515625 -0.359375q0.625 0 1.125 0.203125q0.5 0.203125 0.78125 0.5625q0.28125 0.359375 0.4375 0.9375l-0.6875 0.1875q-0.125 -0.4375 -0.328125 -0.6875q-0.1875 -0.25 -0.546875 -0.390625q-0.34375 -0.15625 -0.78125 -0.15625q-0.515625 0 -0.90625 0.15625q-0.375 0.15625 -0.609375 0.421875q-0.21875 0.25 -0.359375 0.5625q-0.21875 0.53125 -0.21875 1.140625q0 0.765625 0.265625 1.28125q0.265625 0.515625 0.765625 0.765625q0.515625 0.25 1.078125 0.25q0.484375 0 0.953125 -0.1875q0.46875 -0.1875 0.71875 -0.40625l0 -1.0625l-1.6875 0zm3.5507812 2.25l0 -5.734375l2.15625 0q0.5625 0 0.875 0.0625q0.421875 0.0625 0.703125 0.265625q0.28125 0.203125 0.453125 0.5625q0.171875 0.34375 0.171875 0.765625q0 0.734375 -0.46875 1.25q-0.453125 0.5 -1.671875 0.5l-1.46875 0l0 2.328125l-0.75 0zm0.75 -3.0l1.484375 0q0.734375 0 1.03125 -0.265625q0.3125 -0.28125 0.3125 -0.78125q0 -0.359375 -0.1875 -0.609375q-0.171875 -0.265625 -0.46875 -0.34375q-0.1875 -0.046875 -0.703125 -0.046875l-1.46875 0l0 2.046875zm6.9453125 3.0l-0.703125 0l0 -4.484375q-0.25 0.25 -0.671875 0.5q-0.40625 0.234375 -0.734375 0.34375l0 -0.671875q0.59375 -0.28125 1.03125 -0.671875q0.4375 -0.390625 0.625 -0.765625l0.453125 0l0 5.75zm1.7929688 -1.5l0.75 -0.0625q0.078125 0.53125 0.375 0.8125q0.296875 0.265625 0.71875 0.265625q0.515625 0 0.859375 -0.375q0.359375 -0.390625 0.359375 -1.015625q0 -0.609375 -0.34375 -0.953125q-0.34375 -0.34375 -0.890625 -0.34375q-0.328125 0 -0.609375 0.15625q-0.265625 0.140625 -0.421875 0.390625l-0.671875 -0.078125l0.5625 -2.953125l2.84375 0l0 0.671875l-2.28125 0l-0.3125 1.546875q0.515625 -0.359375 1.078125 -0.359375q0.75 0 1.265625 0.515625q0.515625 0.515625 0.515625 1.34375q0 0.765625 -0.453125 1.34375q-0.546875 0.6875 -1.5 0.6875q-0.78125 0 -1.28125 -0.4375q-0.484375 -0.4375 -0.5625 -1.15625z" fill-rule="nonzero"/><path fill="#000000" fill-opacity="0.0" d="m209.5 345.46457l53.763794 0l0 29.070862l-53.763794 0z" fill-rule="evenodd"/><path fill="#000000" d="m239.78331 359.89456l0 -0.671875l2.421875 0l0 2.125q-0.546875 0.4375 -1.140625 0.671875q-0.59375 0.21875 -1.21875 0.21875q-0.84375 0 -1.546875 -0.359375q-0.6875 -0.359375 -1.046875 -1.046875q-0.34375 -0.6875 -0.34375 -1.53125q0 -0.828125 0.34375 -1.546875q0.359375 -0.734375 1.015625 -1.078125q0.65625 -0.359375 1.515625 -0.359375q0.625 0 1.125 0.203125q0.5 0.203125 0.78125 0.5625q0.28125 0.359375 0.4375 0.9375l-0.6875 0.1875q-0.125 -0.4375 -0.328125 -0.6875q-0.1875 -0.25 -0.546875 -0.390625q-0.34375 -0.15625 -0.78125 -0.15625q-0.515625 0 -0.90625 0.15625q-0.375 0.15625 -0.609375 0.421875q-0.21875 0.25 -0.359375 0.5625q-0.21875 0.53125 -0.21875 1.140625q0 0.765625 0.265625 1.28125q0.265625 0.515625 0.765625 0.765625q0.515625 0.25 1.078125 0.25q0.484375 0 0.953125 -0.1875q0.46875 -0.1875 0.71875 -0.40625l0 -1.0625l-1.6875 0zm3.5351562 2.25l0 -5.734375l0.78125 0l3.0 4.5l0 -4.5l0.734375 0l0 5.734375l-0.78125 0l-3.0 -4.5l0 4.5l-0.734375 0zm5.7929688 0l0 -5.734375l1.96875 0q0.671875 0 1.015625 0.09375q0.5 0.109375 0.84375 0.40625q0.453125 0.375 0.671875 0.984375q0.234375 0.59375 0.234375 1.359375q0 0.640625 -0.15625 1.15625q-0.15625 0.5 -0.390625 0.828125q-0.234375 0.328125 -0.53125 0.515625q-0.28125 0.1875 -0.6875 0.296875q-0.390625 0.09375 -0.90625 0.09375l-2.0625 0zm0.75 -0.671875l1.21875 0q0.578125 0 0.890625 -0.109375q0.328125 -0.109375 0.515625 -0.296875q0.265625 -0.265625 0.421875 -0.71875q0.15625 -0.46875 0.15625 -1.109375q0 -0.90625 -0.296875 -1.375q-0.296875 -0.484375 -0.71875 -0.65625q-0.3125 -0.109375 -0.984375 -0.109375l-1.203125 0l0 4.375z" fill-rule="nonzero"/><path fill="#000000" fill-opacity="0.0" d="m27.987892 365.00525l41.51181 0l0 29.070862l-41.51181 0z" fill-rule="evenodd"/><path fill="#000000" d="m47.89028 379.66962l0.765625 0.203125q-0.25 0.921875 -0.875 1.421875q-0.609375 0.484375 -1.5 0.484375q-0.921875 0 -1.515625 -0.375q-0.578125 -0.375 -0.875 -1.09375q-0.296875 -0.71875 -0.296875 -1.53125q0 -0.890625 0.328125 -1.5625q0.34375 -0.671875 0.96875 -1.015625q0.640625 -0.34375 1.40625 -0.34375q0.859375 0 1.4375 0.4375q0.59375 0.4375 0.8125 1.234375l-0.734375 0.171875q-0.203125 -0.625 -0.59375 -0.90625q-0.375 -0.28125 -0.9375 -0.28125q-0.671875 0 -1.109375 0.3125q-0.4375 0.3125 -0.625 0.84375q-0.171875 0.53125 -0.171875 1.109375q0 0.71875 0.203125 1.265625q0.21875 0.546875 0.65625 0.828125q0.453125 0.265625 0.984375 0.265625q0.640625 0 1.078125 -0.359375q0.4375 -0.375 0.59375 -1.109375zm1.4335938 0.171875l0.71875 -0.0625q0.046875 0.4375 0.234375 0.71875q0.1875 0.265625 0.578125 0.4375q0.390625 0.171875 0.875 0.171875q0.4375 0 0.765625 -0.125q0.328125 -0.140625 0.484375 -0.359375q0.171875 -0.234375 0.171875 -0.5q0 -0.265625 -0.15625 -0.46875q-0.15625 -0.203125 -0.515625 -0.328125q-0.234375 -0.09375 -1.03125 -0.28125q-0.78125 -0.1875 -1.09375 -0.359375q-0.40625 -0.21875 -0.609375 -0.53125q-0.203125 -0.328125 -0.203125 -0.71875q0 -0.4375 0.25 -0.8125q0.25 -0.375 0.71875 -0.5625q0.46875 -0.203125 1.046875 -0.203125q0.640625 0 1.125 0.203125q0.484375 0.203125 0.75 0.609375q0.265625 0.390625 0.28125 0.90625l-0.734375 0.046875q-0.046875 -0.546875 -0.390625 -0.8125q-0.34375 -0.28125 -1.0 -0.28125q-0.6875 0 -1.0 0.25q-0.3125 0.25 -0.3125 0.609375q0 0.3125 0.21875 0.5q0.21875 0.203125 1.140625 0.421875q0.921875 0.203125 1.265625 0.359375q0.5 0.234375 0.734375 0.59375q0.25 0.34375 0.25 0.796875q0 0.46875 -0.265625 0.875q-0.265625 0.390625 -0.75 0.625q-0.484375 0.21875 -1.109375 0.21875q-0.765625 0 -1.296875 -0.21875q-0.53125 -0.234375 -0.828125 -0.6875q-0.296875 -0.453125 -0.3125 -1.03125z" fill-rule="nonzero"/><path fill="#000000" fill-opacity="0.0" d="m60.730675 365.00525l41.51181 0l0 29.070862l-41.51181 0z" fill-rule="evenodd"/><path fill="#000000" d="m77.63697 381.68524l0 -5.734375l1.140625 0l1.359375 4.0625q0.1875 0.5625 0.265625 0.84375q0.109375 -0.3125 0.3125 -0.921875l1.375 -3.984375l1.015625 0l0 5.734375l-0.734375 0l0 -4.796875l-1.65625 4.796875l-0.6875 0l-1.65625 -4.875l0 4.875l-0.734375 0zm6.8203125 0l0 -5.734375l0.75 0l0 5.734375l-0.75 0z" fill-rule="nonzero"/><path fill="#000000" fill-opacity="0.0" d="m92.730675 365.00525l41.511818 0l0 29.070862l-41.511818 0z" fill-rule="evenodd"/><path fill="#000000" d="m111.44752 379.43524l0 -0.671875l2.421875 0l0 2.125q-0.546875 0.4375 -1.140625 0.671875q-0.59375 0.21875 -1.21875 0.21875q-0.84375 0 -1.546875 -0.359375q-0.6875 -0.359375 -1.046875 -1.046875q-0.34375 -0.6875 -0.34375 -1.53125q0 -0.828125 0.34375 -1.546875q0.359375 -0.734375 1.015625 -1.078125q0.65625 -0.359375 1.515625 -0.359375q0.625 0 1.125 0.203125q0.5 0.203125 0.78125 0.5625q0.28125 0.359375 0.4375 0.9375l-0.6875 0.1875q-0.125 -0.4375 -0.328125 -0.6875q-0.1875 -0.25 -0.546875 -0.390625q-0.34375 -0.15625 -0.78125 -0.15625q-0.515625 0 -0.90625 0.15625q-0.375 0.15625 -0.609375 0.421875q-0.21875 0.25 -0.359375 0.5625q-0.21875 0.53125 -0.21875 1.140625q0 0.765625 0.265625 1.28125q0.265625 0.515625 0.765625 0.765625q0.515625 0.25 1.078125 0.25q0.484375 0 0.953125 -0.1875q0.46875 -0.1875 0.71875 -0.40625l0 -1.0625l-1.6875 0zm3.3632812 0.921875l0.671875 -0.0625q0.09375 0.484375 0.328125 0.703125q0.25 0.203125 0.625 0.203125q0.328125 0 0.5625 -0.140625q0.25 -0.15625 0.40625 -0.40625q0.15625 -0.25 0.265625 -0.671875q0.109375 -0.421875 0.109375 -0.859375q0 -0.046875 -0.015625 -0.140625q-0.203125 0.34375 -0.578125 0.5625q-0.359375 0.203125 -0.78125 0.203125q-0.71875 0 -1.21875 -0.515625q-0.484375 -0.515625 -0.484375 -1.359375q0 -0.875 0.515625 -1.40625q0.515625 -0.53125 1.296875 -0.53125q0.546875 0 1.015625 0.296875q0.46875 0.296875 0.703125 0.859375q0.234375 0.5625 0.234375 1.609375q0 1.09375 -0.234375 1.75q-0.234375 0.65625 -0.703125 1.0q-0.46875 0.328125 -1.109375 0.328125q-0.671875 0 -1.09375 -0.375q-0.421875 -0.375 -0.515625 -1.046875zm2.875 -2.53125q0 -0.59375 -0.328125 -0.953125q-0.3125 -0.359375 -0.765625 -0.359375q-0.46875 0 -0.8125 0.390625q-0.34375 0.375 -0.34375 0.984375q0 0.546875 0.328125 0.890625q0.328125 0.34375 0.8125 0.34375q0.484375 0 0.796875 -0.34375q0.3125 -0.34375 0.3125 -0.953125z" fill-rule="nonzero"/><path fill="#000000" fill-opacity="0.0" d="m124.730675 365.00525l41.511818 0l0 29.070862l-41.511818 0z" fill-rule="evenodd"/><path fill="#000000" d="m141.22292 379.43524l0 -0.671875l2.421875 0l0 2.125q-0.546875 0.4375 -1.140625 0.671875q-0.59375 0.21875 -1.21875 0.21875q-0.84375 0 -1.546875 -0.359375q-0.6875 -0.359375 -1.046875 -1.046875q-0.34375 -0.6875 -0.34375 -1.53125q0 -0.828125 0.34375 -1.546875q0.359375 -0.734375 1.015625 -1.078125q0.65625 -0.359375 1.515625 -0.359375q0.625 0 1.125 0.203125q0.5 0.203125 0.78125 0.5625q0.28125 0.359375 0.4375 0.9375l-0.6875 0.1875q-0.125 -0.4375 -0.328125 -0.6875q-0.1875 -0.25 -0.546875 -0.390625q-0.34375 -0.15625 -0.78125 -0.15625q-0.515625 0 -0.90625 0.15625q-0.375 0.15625 -0.609375 0.421875q-0.21875 0.25 -0.359375 0.5625q-0.21875 0.53125 -0.21875 1.140625q0 0.765625 0.265625 1.28125q0.265625 0.515625 0.765625 0.765625q0.515625 0.25 1.078125 0.25q0.484375 0 0.953125 -0.1875q0.46875 -0.1875 0.71875 -0.40625l0 -1.0625l-1.6875 0zm5.9101562 2.25l-0.703125 0l0 -4.484375q-0.25 0.25 -0.671875 0.5q-0.40625 0.234375 -0.734375 0.34375l0 -0.671875q0.59375 -0.28125 1.03125 -0.671875q0.4375 -0.390625 0.625 -0.765625l0.453125 0l0 5.75zm1.7929688 -2.828125q0 -1.015625 0.203125 -1.625q0.21875 -0.625 0.625 -0.953125q0.421875 -0.34375 1.046875 -0.34375q0.453125 0 0.796875 0.1875q0.359375 0.1875 0.578125 0.53125q0.234375 0.34375 0.359375 0.859375q0.125 0.5 0.125 1.34375q0 1.015625 -0.203125 1.640625q-0.203125 0.609375 -0.625 0.953125q-0.40625 0.328125 -1.03125 0.328125q-0.828125 0 -1.296875 -0.59375q-0.578125 -0.71875 -0.578125 -2.328125zm0.734375 0q0 1.40625 0.328125 1.875q0.328125 0.46875 0.8125 0.46875q0.484375 0 0.8125 -0.46875q0.328125 -0.46875 0.328125 -1.875q0 -1.40625 -0.328125 -1.875q-0.328125 -0.46875 -0.828125 -0.46875q-0.484375 0 -0.765625 0.40625q-0.359375 0.53125 -0.359375 1.9375z" fill-rule="nonzero"/><path fill="#000000" fill-opacity="0.0" d="m156.73068 365.00525l41.51181 0l0 29.070862l-41.51181 0z" fill-rule="evenodd"/><path fill="#000000" d="m171.63698 381.68524l0 -5.734375l1.140625 0l1.359375 4.0625q0.1875 0.5625 0.265625 0.84375q0.109375 -0.3125 0.3125 -0.921875l1.375 -3.984375l1.015625 0l0 5.734375l-0.734375 0l0 -4.796875l-1.65625 4.796875l-0.6875 0l-1.65625 -4.875l0 4.875l-0.734375 0zm6.4609375 -2.796875q0 -1.421875 0.765625 -2.21875q0.765625 -0.8125 1.96875 -0.8125q0.796875 0 1.4375 0.375q0.640625 0.375 0.96875 1.0625q0.328125 0.671875 0.328125 1.53125q0 0.875 -0.359375 1.5625q-0.34375 0.6875 -0.984375 1.046875q-0.640625 0.34375 -1.390625 0.34375q-0.8125 0 -1.453125 -0.390625q-0.625 -0.390625 -0.953125 -1.0625q-0.328125 -0.671875 -0.328125 -1.4375zm0.78125 0.015625q0 1.03125 0.546875 1.640625q0.5625 0.59375 1.40625 0.59375q0.859375 0 1.40625 -0.59375q0.546875 -0.609375 0.546875 -1.71875q0 -0.703125 -0.234375 -1.21875q-0.234375 -0.53125 -0.6875 -0.8125q-0.453125 -0.28125 -1.015625 -0.28125q-0.8125 0 -1.390625 0.546875q-0.578125 0.546875 -0.578125 1.84375z" fill-rule="nonzero"/><path fill="#000000" fill-opacity="0.0" d="m187.9879 365.00525l41.51181 0l0 29.070862l-41.51181 0z" fill-rule="evenodd"/><path fill="#000000" d="m207.89029 379.66962l0.765625 0.203125q-0.25 0.921875 -0.875 1.421875q-0.609375 0.484375 -1.5 0.484375q-0.921875 0 -1.515625 -0.375q-0.578125 -0.375 -0.875 -1.09375q-0.296875 -0.71875 -0.296875 -1.53125q0 -0.890625 0.328125 -1.5625q0.34375 -0.671875 0.96875 -1.015625q0.640625 -0.34375 1.40625 -0.34375q0.859375 0 1.4375 0.4375q0.59375 0.4375 0.8125 1.234375l-0.734375 0.171875q-0.203125 -0.625 -0.59375 -0.90625q-0.375 -0.28125 -0.9375 -0.28125q-0.671875 0 -1.109375 0.3125q-0.4375 0.3125 -0.625 0.84375q-0.171875 0.53125 -0.171875 1.109375q0 0.71875 0.203125 1.265625q0.21875 0.546875 0.65625 0.828125q0.453125 0.265625 0.984375 0.265625q0.640625 0 1.078125 -0.359375q0.4375 -0.375 0.59375 -1.109375zm1.6679688 2.015625l0 -5.734375l0.75 0l0 2.84375l2.84375 -2.84375l1.03125 0l-2.40625 2.328125l2.515625 3.40625l-1.0 0l-2.046875 -2.90625l-0.9375 0.921875l0 1.984375l-0.75 0z" fill-rule="nonzero"/><path fill="#000000" fill-opacity="0.0" d="m32.0 202.49081l192.0 0l0 66.26773l-192.0 0z" fill-rule="evenodd"/><path fill="#000000" d="m51.560486 248.61081l0 -27.671875l20.0 0l0 3.265625l-16.34375 0l0 8.46875l15.3125 0l0 3.25l-15.3125 0l0 9.421875l16.984375 0l0 3.265625l-20.640625 0zm24.455292 -8.890625l3.453125 -0.296875q0.25 2.078125 1.140625 3.40625q0.90625 1.328125 2.78125 2.15625q1.890625 0.8125 4.25 0.8125q2.09375 0 3.703125 -0.625q1.609375 -0.625 2.390625 -1.703125q0.78125 -1.09375 0.78125 -2.375q0 -1.296875 -0.765625 -2.265625q-0.75 -0.984375 -2.484375 -1.640625q-1.109375 -0.4375 -4.921875 -1.34375q-3.8125 -0.921875 -5.34375 -1.734375q-1.984375 -1.03125 -2.953125 -2.5625q-0.96875 -1.546875 -0.96875 -3.453125q0 -2.09375 1.1875 -3.90625q1.1875 -1.828125 3.46875 -2.765625q2.28125 -0.953125 5.078125 -0.953125q3.078125 0 5.421875 1.0q2.359375 0.984375 3.625 2.90625q1.265625 1.921875 1.359375 4.359375l-3.515625 0.265625q-0.28125 -2.625 -1.921875 -3.96875q-1.625 -1.34375 -4.8125 -1.34375q-3.328125 0 -4.84375 1.21875q-1.515625 1.21875 -1.515625 2.9375q0 1.5 1.078125 2.453125q1.046875 0.96875 5.515625 1.984375q4.46875 1.0 6.125 1.75q2.421875 1.125 3.5625 2.828125q1.15625 1.703125 1.15625 3.9375q0 2.203125 -1.265625 4.15625q-1.265625 1.953125 -3.640625 3.046875q-2.359375 1.078125 -5.328125 1.078125q-3.75 0 -6.296875 -1.09375q-2.53125 -1.09375 -3.984375 -3.28125q-1.4375 -2.203125 -1.515625 -4.984375zm27.033417 8.890625l0 -27.671875l10.4375 0q2.75 0 4.203125 0.265625q2.046875 0.34375 3.421875 1.296875q1.375 0.953125 2.21875 2.671875q0.84375 1.71875 0.84375 3.765625q0 3.53125 -2.25 5.984375q-2.25 2.4375 -8.125 2.4375l-7.09375 0l0 11.25l-3.65625 0zm3.65625 -14.515625l7.15625 0q3.546875 0 5.03125 -1.3125q1.5 -1.328125 1.5 -3.71875q0 -1.75 -0.875 -2.984375q-0.875 -1.234375 -2.3125 -1.625q-0.921875 -0.25 -3.421875 -0.25l-7.078125 0l0 9.890625zm20.377167 6.203125l0 -3.40625l10.4375 0l0 3.40625l-10.4375 0zm26.044708 8.3125l-3.40625 0l0 -21.65625q-1.21875 1.171875 -3.21875 2.34375q-1.984375 1.171875 -3.578125 1.765625l0 -3.296875q2.859375 -1.328125 4.984375 -3.234375q2.140625 -1.90625 3.03125 -3.703125l2.1875 0l0 27.78125zm26.545639 -3.265625l0 3.265625l-18.28125 0q-0.046875 -1.234375 0.390625 -2.359375q0.703125 -1.875 2.234375 -3.6875q1.546875 -1.8125 4.453125 -4.1875q4.515625 -3.703125 6.09375 -5.859375q1.59375 -2.15625 1.59375 -4.078125q0 -2.03125 -1.453125 -3.40625q-1.4375 -1.390625 -3.765625 -1.390625q-2.453125 0 -3.921875 1.46875q-1.46875 1.46875 -1.5 4.078125l-3.484375 -0.359375q0.359375 -3.90625 2.703125 -5.953125q2.34375 -2.046875 6.28125 -2.046875q3.984375 0 6.296875 2.203125q2.328125 2.203125 2.328125 5.46875q0 1.671875 -0.6875 3.28125q-0.671875 1.59375 -2.25 3.375q-1.578125 1.765625 -5.234375 4.859375q-3.0625 2.578125 -3.9375 3.5q-0.859375 0.90625 -1.421875 1.828125l13.5625 0zm5.108139 3.265625l0 -27.671875l20.0 0l0 3.265625l-16.34375 0l0 8.46875l15.3125 0l0 3.25l-15.3125 0l0 9.421875l16.984375 0l0 3.265625l-20.640625 0z" fill-rule="nonzero"/><path fill="#000000" fill-opacity="0.0" d="m95.81102 343.96454l136.18898 0l0 29.070892l-136.18898 0z" fill-rule="evenodd"/><path fill="#000000" d="m112.69141 360.9883l0.671875 0.109375q0.046875 0.3125 0.25 0.453125q0.25 0.203125 0.703125 0.203125q0.5 0 0.765625 -0.203125q0.265625 -0.1875 0.359375 -0.546875q0.046875 -0.21875 0.046875 -0.90625q-0.46875 0.546875 -1.15625 0.546875q-0.84375 0 -1.3125 -0.609375q-0.46875 -0.625 -0.46875 -1.484375q0 -0.59375 0.203125 -1.09375q0.21875 -0.515625 0.625 -0.78125q0.40625 -0.28125 0.96875 -0.28125q0.734375 0 1.203125 0.59375l0 -0.5l0.65625 0l0 3.59375q0 0.96875 -0.203125 1.375q-0.203125 0.40625 -0.625 0.640625q-0.421875 0.234375 -1.046875 0.234375q-0.75 0 -1.203125 -0.34375q-0.453125 -0.328125 -0.4375 -1.0zm0.578125 -2.5q0 0.828125 0.3125 1.203125q0.328125 0.375 0.828125 0.375q0.484375 0 0.8125 -0.375q0.328125 -0.375 0.328125 -1.171875q0 -0.765625 -0.34375 -1.140625q-0.34375 -0.390625 -0.8125 -0.390625q-0.46875 0 -0.796875 0.375q-0.328125 0.375 -0.328125 1.125zm3.9960938 -2.765625l0 -0.8125l0.703125 0l0 0.8125l-0.703125 0zm0 4.921875l0 -4.15625l0.703125 0l0 4.15625l-0.703125 0zm3.3085938 -0.625l0.109375 0.609375q-0.296875 0.078125 -0.53125 0.078125q-0.390625 0 -0.609375 -0.125q-0.203125 -0.125 -0.296875 -0.3125q-0.078125 -0.203125 -0.078125 -0.84375l0 -2.390625l-0.515625 0l0 -0.546875l0.515625 0l0 -1.015625l0.703125 -0.421875l0 1.4375l0.703125 0l0 0.546875l-0.703125 0l0 2.4375q0 0.296875 0.03125 0.390625q0.046875 0.078125 0.125 0.125q0.078125 0.046875 0.234375 0.046875q0.125 0 0.3125 -0.015625zm0.69140625 0.625l0 -5.734375l0.703125 0l0 2.0625q0.484375 -0.578125 1.234375 -0.578125q0.46875 0 0.796875 0.1875q0.34375 0.1875 0.484375 0.515625q0.15625 0.3125 0.15625 0.921875l0 2.625l-0.703125 0l0 -2.625q0 -0.53125 -0.234375 -0.765625q-0.21875 -0.25 -0.640625 -0.25q-0.3125 0 -0.59375 0.171875q-0.265625 0.15625 -0.390625 0.4375q-0.109375 0.265625 -0.109375 0.765625l0 2.265625l-0.703125 0zm7.1679688 0l0 -0.609375q-0.484375 0.703125 -1.3125 0.703125q-0.375 0 -0.703125 -0.140625q-0.3125 -0.140625 -0.46875 -0.34375q-0.140625 -0.21875 -0.203125 -0.53125q-0.046875 -0.203125 -0.046875 -0.65625l0 -2.578125l0.703125 0l0 2.3125q0 0.546875 0.046875 0.734375q0.0625 0.28125 0.265625 0.4375q0.21875 0.15625 0.546875 0.15625q0.3125 0 0.578125 -0.15625q0.28125 -0.171875 0.390625 -0.4375q0.125 -0.28125 0.125 -0.8125l0 -2.234375l0.703125 0l0 4.15625l-0.625 0zm2.3710938 0l-0.640625 0l0 -5.734375l0.703125 0l0 2.046875q0.4375 -0.5625 1.125 -0.5625q0.390625 0 0.734375 0.15625q0.34375 0.15625 0.5625 0.4375q0.21875 0.28125 0.34375 0.671875q0.125 0.390625 0.125 0.84375q0 1.0625 -0.53125 1.65625q-0.53125 0.578125 -1.265625 0.578125q-0.734375 0 -1.15625 -0.609375l0 0.515625zm0 -2.109375q0 0.75 0.203125 1.078125q0.328125 0.546875 0.890625 0.546875q0.46875 0 0.796875 -0.390625q0.34375 -0.40625 0.34375 -1.203125q0 -0.8125 -0.328125 -1.203125q-0.3125 -0.390625 -0.78125 -0.390625q-0.453125 0 -0.796875 0.40625q-0.328125 0.40625 -0.328125 1.15625zm4.0117188 2.109375l0 -0.796875l0.796875 0l0 0.796875l-0.796875 0zm4.7226562 -1.515625l0.6875 0.078125q-0.109375 0.71875 -0.578125 1.125q-0.46875 0.40625 -1.140625 0.40625q-0.859375 0 -1.375 -0.546875q-0.515625 -0.5625 -0.515625 -1.609375q0 -0.671875 0.21875 -1.171875q0.234375 -0.5 0.6875 -0.75q0.453125 -0.265625 0.984375 -0.265625q0.671875 0 1.09375 0.34375q0.4375 0.34375 0.5625 0.96875l-0.6875 0.109375q-0.09375 -0.421875 -0.34375 -0.625q-0.25 -0.21875 -0.59375 -0.21875q-0.53125 0 -0.875 0.390625q-0.328125 0.375 -0.328125 1.203125q0 0.828125 0.3125 1.21875q0.328125 0.375 0.84375 0.375q0.421875 0 0.6875 -0.25q0.28125 -0.265625 0.359375 -0.78125zm1.03125 -0.5625q0 -1.15625 0.640625 -1.703125q0.53125 -0.46875 1.3125 -0.46875q0.84375 0 1.390625 0.5625q0.546875 0.5625 0.546875 1.546875q0 0.8125 -0.25 1.265625q-0.234375 0.453125 -0.703125 0.71875q-0.453125 0.25 -0.984375 0.25q-0.875 0 -1.421875 -0.5625q-0.53125 -0.5625 -0.53125 -1.609375zm0.71875 0q0 0.796875 0.34375 1.203125q0.359375 0.390625 0.890625 0.390625q0.515625 0 0.859375 -0.390625q0.359375 -0.40625 0.359375 -1.21875q0 -0.78125 -0.359375 -1.171875q-0.34375 -0.390625 -0.859375 -0.390625q-0.53125 0 -0.890625 0.390625q-0.34375 0.390625 -0.34375 1.1875zm3.9960938 2.078125l0 -4.15625l0.625 0l0 0.59375q0.203125 -0.3125 0.515625 -0.5q0.328125 -0.1875 0.75 -0.1875q0.453125 0 0.75 0.203125q0.296875 0.1875 0.421875 0.53125q0.484375 -0.734375 1.28125 -0.734375q0.609375 0 0.9375 0.34375q0.34375 0.34375 0.34375 1.0625l0 2.84375l-0.703125 0l0 -2.609375q0 -0.421875 -0.078125 -0.609375q-0.0625 -0.1875 -0.25 -0.296875q-0.171875 -0.125 -0.40625 -0.125q-0.4375 0 -0.734375 0.296875q-0.28125 0.296875 -0.28125 0.9375l0 2.40625l-0.703125 0l0 -2.703125q0 -0.46875 -0.171875 -0.703125q-0.171875 -0.234375 -0.5625 -0.234375q-0.296875 0 -0.5625 0.15625q-0.25 0.15625 -0.359375 0.46875q-0.109375 0.296875 -0.109375 0.859375l0 2.15625l-0.703125 0zm6.1328125 0.09375l1.65625 -5.921875l0.5625 0l-1.65625 5.921875l-0.5625 0zm4.2851562 -0.71875l0.109375 0.609375q-0.296875 0.078125 -0.53125 0.078125q-0.390625 0 -0.609375 -0.125q-0.203125 -0.125 -0.296875 -0.3125q-0.078125 -0.203125 -0.078125 -0.84375l0 -2.390625l-0.515625 0l0 -0.546875l0.515625 0l0 -1.015625l0.703125 -0.421875l0 1.4375l0.703125 0l0 0.546875l-0.703125 0l0 2.4375q0 0.296875 0.03125 0.390625q0.046875 0.078125 0.125 0.125q0.078125 0.046875 0.234375 0.046875q0.125 0 0.3125 -0.015625zm3.5351562 -0.71875l0.71875 0.09375q-0.171875 0.640625 -0.640625 1.0q-0.453125 0.34375 -1.1875 0.34375q-0.90625 0 -1.4375 -0.5625q-0.53125 -0.5625 -0.53125 -1.578125q0 -1.046875 0.53125 -1.625q0.546875 -0.578125 1.40625 -0.578125q0.828125 0 1.359375 0.578125q0.53125 0.5625 0.53125 1.59375q0 0.0625 -0.015625 0.1875l-3.09375 0q0.046875 0.671875 0.390625 1.046875q0.34375 0.359375 0.875 0.359375q0.375 0 0.640625 -0.203125q0.28125 -0.203125 0.453125 -0.65625zm-2.3125 -1.125l2.3125 0q-0.046875 -0.53125 -0.265625 -0.796875q-0.328125 -0.40625 -0.875 -0.40625q-0.484375 0 -0.8125 0.328125q-0.328125 0.328125 -0.359375 0.875zm3.9179688 2.46875l0 -5.734375l0.703125 0l0 3.265625l1.671875 -1.6875l0.90625 0l-1.59375 1.546875l1.75 2.609375l-0.859375 0l-1.375 -2.125l-0.5 0.484375l0 1.640625l-0.703125 0zm4.0 0l0 -5.734375l0.703125 0l0 3.265625l1.671875 -1.6875l0.90625 0l-1.59375 1.546875l1.75 2.609375l-0.859375 0l-1.375 -2.125l-0.5 0.484375l0 1.640625l-0.703125 0zm4.0 -4.921875l0 -0.8125l0.703125 0l0 0.8125l-0.703125 0zm0 4.921875l0 -4.15625l0.703125 0l0 4.15625l-0.703125 0zm4.6210938 -1.34375l0.71875 0.09375q-0.171875 0.640625 -0.640625 1.0q-0.453125 0.34375 -1.1875 0.34375q-0.90625 0 -1.4375 -0.5625q-0.53125 -0.5625 -0.53125 -1.578125q0 -1.046875 0.53125 -1.625q0.546875 -0.578125 1.40625 -0.578125q0.828125 0 1.359375 0.578125q0.53125 0.5625 0.53125 1.59375q0 0.0625 -0.015625 0.1875l-3.09375 0q0.046875 0.671875 0.390625 1.046875q0.34375 0.359375 0.875 0.359375q0.375 0 0.640625 -0.203125q0.28125 -0.203125 0.453125 -0.65625zm-2.3125 -1.125l2.3125 0q-0.046875 -0.53125 -0.265625 -0.796875q-0.328125 -0.40625 -0.875 -0.40625q-0.484375 0 -0.8125 0.328125q-0.328125 0.328125 -0.359375 0.875zm3.6367188 1.234375l0.6875 -0.109375q0.0625 0.40625 0.328125 0.640625q0.265625 0.21875 0.75 0.21875q0.484375 0 0.71875 -0.1875q0.234375 -0.203125 0.234375 -0.46875q0 -0.25 -0.203125 -0.375q-0.140625 -0.09375 -0.71875 -0.25q-0.78125 -0.1875 -1.078125 -0.328125q-0.296875 -0.140625 -0.453125 -0.390625q-0.15625 -0.265625 -0.15625 -0.5625q0 -0.28125 0.125 -0.515625q0.140625 -0.234375 0.359375 -0.390625q0.15625 -0.125 0.4375 -0.203125q0.28125 -0.09375 0.609375 -0.09375q0.484375 0 0.859375 0.140625q0.375 0.140625 0.546875 0.390625q0.171875 0.234375 0.234375 0.640625l-0.6875 0.09375q-0.046875 -0.328125 -0.265625 -0.5q-0.21875 -0.1875 -0.640625 -0.1875q-0.484375 0 -0.6875 0.171875q-0.203125 0.15625 -0.203125 0.375q0 0.125 0.078125 0.234375q0.09375 0.125 0.28125 0.1875q0.09375 0.046875 0.609375 0.1875q0.75 0.203125 1.046875 0.328125q0.296875 0.125 0.453125 0.375q0.171875 0.234375 0.171875 0.59375q0 0.34375 -0.203125 0.65625q-0.203125 0.3125 -0.59375 0.484375q-0.375 0.171875 -0.875 0.171875q-0.796875 0 -1.234375 -0.328125q-0.421875 -0.34375 -0.53125 -1.0zm3.75 1.328125l1.65625 -5.921875l0.5625 0l-1.65625 5.921875l-0.5625 0zm2.9257812 -0.09375l0 -3.609375l-0.625 0l0 -0.546875l0.625 0l0 -0.4375q0 -0.421875 0.0625 -0.625q0.109375 -0.265625 0.359375 -0.4375q0.265625 -0.171875 0.71875 -0.171875q0.296875 0 0.65625 0.078125l-0.109375 0.609375q-0.21875 -0.046875 -0.40625 -0.046875q-0.328125 0 -0.46875 0.140625q-0.125 0.140625 -0.125 0.515625l0 0.375l0.8125 0l0 0.546875l-0.8125 0l0 3.609375l-0.6875 0zm2.0351562 0l0 -4.15625l0.640625 0l0 0.640625q0.234375 -0.453125 0.4375 -0.59375q0.21875 -0.140625 0.453125 -0.140625q0.359375 0 0.734375 0.234375l-0.25 0.65625q-0.25 -0.15625 -0.515625 -0.15625q-0.234375 0 -0.421875 0.140625q-0.171875 0.140625 -0.25 0.375q-0.125 0.375 -0.125 0.828125l0 2.171875l-0.703125 0zm5.5234375 -1.34375l0.71875 0.09375q-0.171875 0.640625 -0.640625 1.0q-0.453125 0.34375 -1.1875 0.34375q-0.90625 0 -1.4375 -0.5625q-0.53125 -0.5625 -0.53125 -1.578125q0 -1.046875 0.53125 -1.625q0.546875 -0.578125 1.40625 -0.578125q0.828125 0 1.359375 0.578125q0.53125 0.5625 0.53125 1.59375q0 0.0625 -0.015625 0.1875l-3.09375 0q0.046875 0.671875 0.390625 1.046875q0.34375 0.359375 0.875 0.359375q0.375 0 0.640625 -0.203125q0.28125 -0.203125 0.453125 -0.65625zm-2.3125 -1.125l2.3125 0q-0.046875 -0.53125 -0.265625 -0.796875q-0.328125 -0.40625 -0.875 -0.40625q-0.484375 0 -0.8125 0.328125q-0.328125 0.328125 -0.359375 0.875zm6.7617188 1.125l0.71875 0.09375q-0.171875 0.640625 -0.640625 1.0q-0.453125 0.34375 -1.1875 0.34375q-0.90625 0 -1.4375 -0.5625q-0.53125 -0.5625 -0.53125 -1.578125q0 -1.046875 0.53125 -1.625q0.546875 -0.578125 1.40625 -0.578125q0.828125 0 1.359375 0.578125q0.53125 0.5625 0.53125 1.59375q0 0.0625 -0.015625 0.1875l-3.09375 0q0.046875 0.671875 0.390625 1.046875q0.34375 0.359375 0.875 0.359375q0.375 0 0.640625 -0.203125q0.28125 -0.203125 0.453125 -0.65625zm-2.3125 -1.125l2.3125 0q-0.046875 -0.53125 -0.265625 -0.796875q-0.328125 -0.40625 -0.875 -0.40625q-0.484375 0 -0.8125 0.328125q-0.328125 0.328125 -0.359375 0.875zm3.6367188 0.75l0 -0.703125l2.171875 0l0 0.703125l-2.171875 0zm2.9453125 -3.203125l0 -0.8125l0.703125 0l0 0.8125l-0.703125 0zm0 4.921875l0 -4.15625l0.703125 0l0 4.15625l-0.703125 0zm1.7773438 0l0 -4.15625l0.625 0l0 0.59375q0.203125 -0.3125 0.515625 -0.5q0.328125 -0.1875 0.75 -0.1875q0.453125 0 0.75 0.203125q0.296875 0.1875 0.421875 0.53125q0.484375 -0.734375 1.28125 -0.734375q0.609375 0 0.9375 0.34375q0.34375 0.34375 0.34375 1.0625l0 2.84375l-0.703125 0l0 -2.609375q0 -0.421875 -0.078125 -0.609375q-0.0625 -0.1875 -0.25 -0.296875q-0.171875 -0.125 -0.40625 -0.125q-0.4375 0 -0.734375 0.296875q-0.28125 0.296875 -0.28125 0.9375l0 2.40625l-0.703125 0l0 -2.703125q0 -0.46875 -0.171875 -0.703125q-0.171875 -0.234375 -0.5625 -0.234375q-0.296875 0 -0.5625 0.15625q-0.25 0.15625 -0.359375 0.46875q-0.109375 0.296875 -0.109375 0.859375l0 2.15625l-0.703125 0zm9.3671875 -0.515625q-0.390625 0.328125 -0.75 0.46875q-0.359375 0.140625 -0.78125 0.140625q-0.671875 0 -1.046875 -0.328125q-0.359375 -0.34375 -0.359375 -0.859375q0 -0.3125 0.125 -0.5625q0.140625 -0.25 0.359375 -0.390625q0.234375 -0.15625 0.515625 -0.234375q0.203125 -0.0625 0.625 -0.109375q0.859375 -0.109375 1.25 -0.25q0.015625 -0.140625 0.015625 -0.171875q0 -0.4375 -0.203125 -0.609375q-0.265625 -0.234375 -0.796875 -0.234375q-0.5 0 -0.734375 0.171875q-0.234375 0.171875 -0.359375 0.609375l-0.6875 -0.09375q0.09375 -0.4375 0.3125 -0.703125q0.21875 -0.28125 0.625 -0.421875q0.40625 -0.15625 0.9375 -0.15625q0.53125 0 0.859375 0.125q0.34375 0.125 0.5 0.328125q0.15625 0.1875 0.21875 0.46875q0.03125 0.1875 0.03125 0.65625l0 0.9375q0 0.96875 0.046875 1.234375q0.046875 0.265625 0.171875 0.5l-0.734375 0q-0.109375 -0.21875 -0.140625 -0.515625zm-0.0625 -1.5625q-0.375 0.15625 -1.140625 0.265625q-0.4375 0.0625 -0.625 0.140625q-0.171875 0.078125 -0.265625 0.234375q-0.09375 0.140625 -0.09375 0.328125q0 0.28125 0.203125 0.46875q0.21875 0.1875 0.625 0.1875q0.40625 0 0.71875 -0.171875q0.328125 -0.1875 0.46875 -0.5q0.109375 -0.234375 0.109375 -0.703125l0 -0.25zm1.6835938 2.421875l0.671875 0.109375q0.046875 0.3125 0.25 0.453125q0.25 0.203125 0.703125 0.203125q0.5 0 0.765625 -0.203125q0.265625 -0.1875 0.359375 -0.546875q0.046875 -0.21875 0.046875 -0.90625q-0.46875 0.546875 -1.15625 0.546875q-0.84375 0 -1.3125 -0.609375q-0.46875 -0.625 -0.46875 -1.484375q0 -0.59375 0.203125 -1.09375q0.21875 -0.515625 0.625 -0.78125q0.40625 -0.28125 0.96875 -0.28125q0.734375 0 1.203125 0.59375l0 -0.5l0.65625 0l0 3.59375q0 0.96875 -0.203125 1.375q-0.203125 0.40625 -0.625 0.640625q-0.421875 0.234375 -1.046875 0.234375q-0.75 0 -1.203125 -0.34375q-0.453125 -0.328125 -0.4375 -1.0zm0.578125 -2.5q0 0.828125 0.3125 1.203125q0.328125 0.375 0.828125 0.375q0.484375 0 0.8125 -0.375q0.328125 -0.375 0.328125 -1.171875q0 -0.765625 -0.34375 -1.140625q-0.34375 -0.390625 -0.8125 -0.390625q-0.46875 0 -0.796875 0.375q-0.328125 0.375 -0.328125 1.125zm6.8398438 0.8125l0.71875 0.09375q-0.171875 0.640625 -0.640625 1.0q-0.453125 0.34375 -1.1875 0.34375q-0.90625 0 -1.4375 -0.5625q-0.53125 -0.5625 -0.53125 -1.578125q0 -1.046875 0.53125 -1.625q0.546875 -0.578125 1.40625 -0.578125q0.828125 0 1.359375 0.578125q0.53125 0.5625 0.53125 1.59375q0 0.0625 -0.015625 0.1875l-3.09375 0q0.046875 0.671875 0.390625 1.046875q0.34375 0.359375 0.875 0.359375q0.375 0 0.640625 -0.203125q0.28125 -0.203125 0.453125 -0.65625zm-2.3125 -1.125l2.3125 0q-0.046875 -0.53125 -0.265625 -0.796875q-0.328125 -0.40625 -0.875 -0.40625q-0.484375 0 -0.8125 0.328125q-0.328125 0.328125 -0.359375 0.875zm3.6367188 1.234375l0.6875 -0.109375q0.0625 0.40625 0.328125 0.640625q0.265625 0.21875 0.75 0.21875q0.484375 0 0.71875 -0.1875q0.234375 -0.203125 0.234375 -0.46875q0 -0.25 -0.203125 -0.375q-0.140625 -0.09375 -0.71875 -0.25q-0.78125 -0.1875 -1.078125 -0.328125q-0.296875 -0.140625 -0.453125 -0.390625q-0.15625 -0.265625 -0.15625 -0.5625q0 -0.28125 0.125 -0.515625q0.140625 -0.234375 0.359375 -0.390625q0.15625 -0.125 0.4375 -0.203125q0.28125 -0.09375 0.609375 -0.09375q0.484375 0 0.859375 0.140625q0.375 0.140625 0.546875 0.390625q0.171875 0.234375 0.234375 0.640625l-0.6875 0.09375q-0.046875 -0.328125 -0.265625 -0.5q-0.21875 -0.1875 -0.640625 -0.1875q-0.484375 0 -0.6875 0.171875q-0.203125 0.15625 -0.203125 0.375q0 0.125 0.078125 0.234375q0.09375 0.125 0.28125 0.1875q0.09375 0.046875 0.609375 0.1875q0.75 0.203125 1.046875 0.328125q0.296875 0.125 0.453125 0.375q0.171875 0.234375 0.171875 0.59375q0 0.34375 -0.203125 0.65625q-0.203125 0.3125 -0.59375 0.484375q-0.375 0.171875 -0.875 0.171875q-0.796875 0 -1.234375 -0.328125q-0.421875 -0.34375 -0.53125 -1.0z" fill-rule="nonzero"/><path fill="#000000" fill-opacity="0.0" d="m24.891077 343.96454l136.18896 0l0 29.070892l-136.18896 0z" fill-rule="evenodd"/><path fill="#000000" d="m35.953575 360.01956l0.109375 0.609375q-0.296875 0.078125 -0.53125 0.078125q-0.390625 0 -0.609375 -0.125q-0.203125 -0.125 -0.296875 -0.3125q-0.078125 -0.203125 -0.078125 -0.84375l0 -2.390625l-0.515625 0l0 -0.546875l0.515625 0l0 -1.015625l0.703125 -0.421875l0 1.4375l0.703125 0l0 0.546875l-0.703125 0l0 2.4375q0 0.296875 0.03125 0.390625q0.046875 0.078125 0.125 0.125q0.078125 0.046875 0.234375 0.046875q0.125 0 0.3125 -0.015625zm3.5351562 -0.71875l0.71875 0.09375q-0.171875 0.640625 -0.640625 1.0q-0.453125 0.34375 -1.1875 0.34375q-0.90625 0 -1.4375 -0.5625q-0.53125 -0.5625 -0.53125 -1.578125q0 -1.046875 0.53125 -1.625q0.546875 -0.578125 1.40625 -0.578125q0.828125 0 1.359375 0.578125q0.53125 0.5625 0.53125 1.59375q0 0.0625 -0.015625 0.1875l-3.09375 0q0.046875 0.671875 0.390625 1.046875q0.34375 0.359375 0.875 0.359375q0.375 0 0.640625 -0.203125q0.28125 -0.203125 0.453125 -0.65625zm-2.3125 -1.125l2.3125 0q-0.046875 -0.53125 -0.265625 -0.796875q-0.328125 -0.40625 -0.875 -0.40625q-0.484375 0 -0.8125 0.328125q-0.328125 0.328125 -0.359375 0.875zm3.9179688 2.46875l0 -5.734375l0.703125 0l0 3.265625l1.671875 -1.6875l0.90625 0l-1.59375 1.546875l1.75 2.609375l-0.859375 0l-1.375 -2.125l-0.5 0.484375l0 1.640625l-0.703125 0zm4.0 0l0 -5.734375l0.703125 0l0 3.265625l1.671875 -1.6875l0.90625 0l-1.59375 1.546875l1.75 2.609375l-0.859375 0l-1.375 -2.125l-0.5 0.484375l0 1.640625l-0.703125 0zm4.0 -4.921875l0 -0.8125l0.703125 0l0 0.8125l-0.703125 0zm0 4.921875l0 -4.15625l0.703125 0l0 4.15625l-0.703125 0zm4.6210938 -1.34375l0.71875 0.09375q-0.171875 0.640625 -0.640625 1.0q-0.453125 0.34375 -1.1875 0.34375q-0.90625 0 -1.4375 -0.5625q-0.53125 -0.5625 -0.53125 -1.578125q0 -1.046875 0.53125 -1.625q0.546875 -0.578125 1.40625 -0.578125q0.828125 0 1.359375 0.578125q0.53125 0.5625 0.53125 1.59375q0 0.0625 -0.015625 0.1875l-3.09375 0q0.046875 0.671875 0.390625 1.046875q0.34375 0.359375 0.875 0.359375q0.375 0 0.640625 -0.203125q0.28125 -0.203125 0.453125 -0.65625zm-2.3125 -1.125l2.3125 0q-0.046875 -0.53125 -0.265625 -0.796875q-0.328125 -0.40625 -0.875 -0.40625q-0.484375 0 -0.8125 0.328125q-0.328125 0.328125 -0.359375 0.875zm3.6367188 1.234375l0.6875 -0.109375q0.0625 0.40625 0.328125 0.640625q0.265625 0.21875 0.75 0.21875q0.484375 0 0.71875 -0.1875q0.234375 -0.203125 0.234375 -0.46875q0 -0.25 -0.203125 -0.375q-0.140625 -0.09375 -0.71875 -0.25q-0.78125 -0.1875 -1.078125 -0.328125q-0.296875 -0.140625 -0.453125 -0.390625q-0.15625 -0.265625 -0.15625 -0.5625q0 -0.28125 0.125 -0.515625q0.140625 -0.234375 0.359375 -0.390625q0.15625 -0.125 0.4375 -0.203125q0.28125 -0.09375 0.609375 -0.09375q0.484375 0 0.859375 0.140625q0.375 0.140625 0.546875 0.390625q0.171875 0.234375 0.234375 0.640625l-0.6875 0.09375q-0.046875 -0.328125 -0.265625 -0.5q-0.21875 -0.1875 -0.640625 -0.1875q-0.484375 0 -0.6875 0.171875q-0.203125 0.15625 -0.203125 0.375q0 0.125 0.078125 0.234375q0.09375 0.125 0.28125 0.1875q0.09375 0.046875 0.609375 0.1875q0.75 0.203125 1.046875 0.328125q0.296875 0.125 0.453125 0.375q0.171875 0.234375 0.171875 0.59375q0 0.34375 -0.203125 0.65625q-0.203125 0.3125 -0.59375 0.484375q-0.375 0.171875 -0.875 0.171875q-0.796875 0 -1.234375 -0.328125q-0.421875 -0.34375 -0.53125 -1.0zm4.484375 1.234375l0 -0.796875l0.796875 0l0 0.796875l-0.796875 0zm4.7226562 -1.515625l0.6875 0.078125q-0.109375 0.71875 -0.578125 1.125q-0.46875 0.40625 -1.140625 0.40625q-0.859375 0 -1.375 -0.546875q-0.515625 -0.5625 -0.515625 -1.609375q0 -0.671875 0.21875 -1.171875q0.234375 -0.5 0.6875 -0.75q0.453125 -0.265625 0.984375 -0.265625q0.671875 0 1.09375 0.34375q0.4375 0.34375 0.5625 0.96875l-0.6875 0.109375q-0.09375 -0.421875 -0.34375 -0.625q-0.25 -0.21875 -0.59375 -0.21875q-0.53125 0 -0.875 0.390625q-0.328125 0.375 -0.328125 1.203125q0 0.828125 0.3125 1.21875q0.328125 0.375 0.84375 0.375q0.421875 0 0.6875 -0.25q0.28125 -0.265625 0.359375 -0.78125zm1.03125 -0.5625q0 -1.15625 0.640625 -1.703125q0.53125 -0.46875 1.3125 -0.46875q0.84375 0 1.390625 0.5625q0.546875 0.5625 0.546875 1.546875q0 0.8125 -0.25 1.265625q-0.234375 0.453125 -0.703125 0.71875q-0.453125 0.25 -0.984375 0.25q-0.875 0 -1.421875 -0.5625q-0.53125 -0.5625 -0.53125 -1.609375zm0.71875 0q0 0.796875 0.34375 1.203125q0.359375 0.390625 0.890625 0.390625q0.515625 0 0.859375 -0.390625q0.359375 -0.40625 0.359375 -1.21875q0 -0.78125 -0.359375 -1.171875q-0.34375 -0.390625 -0.859375 -0.390625q-0.53125 0 -0.890625 0.390625q-0.34375 0.390625 -0.34375 1.1875zm4.1992188 2.078125l0 -0.796875l0.796875 0l0 0.796875l-0.796875 0zm4.7382812 0l0 -0.609375q-0.484375 0.703125 -1.3125 0.703125q-0.375 0 -0.703125 -0.140625q-0.3125 -0.140625 -0.46875 -0.34375q-0.140625 -0.21875 -0.203125 -0.53125q-0.046875 -0.203125 -0.046875 -0.65625l0 -2.578125l0.703125 0l0 2.3125q0 0.546875 0.046875 0.734375q0.0625 0.28125 0.265625 0.4375q0.21875 0.15625 0.546875 0.15625q0.3125 0 0.578125 -0.15625q0.28125 -0.171875 0.390625 -0.4375q0.125 -0.28125 0.125 -0.8125l0 -2.234375l0.703125 0l0 4.15625l-0.625 0zm1.7304688 0l0 -5.734375l0.703125 0l0 3.265625l1.671875 -1.6875l0.90625 0l-1.59375 1.546875l1.75 2.609375l-0.859375 0l-1.375 -2.125l-0.5 0.484375l0 1.640625l-0.703125 0z" fill-rule="nonzero"/></g></svg>